# xmcd
#
# Track frame offsets: 
#        150
#        10873
#        20473
#        31407
#        41994
#        52549
#        64144
#        75171
#        85160
#        98032
#        108346
#        121738
#        133590
#        143369
#        156639
#        169675
#        179511
#        189767
#        198315
#        210839
#        223869
#        233744
#        242377
#        254815
#        264890
#
# Disc length: 3720 seconds
#
# Revision: 0
# Processed by: cddbd v1.5.2PL0 Copyright (c) Steve Scherf et al.
# Submitted via: ExactAudioCopy v0.99pb5
#
DISCID=400e8619
DTITLE=Various  - Where the Action Is! Los Angeles Nuggets 1965-1968 -
DTITLE=Disc 1
DYEAR=1900
DGENRE=
TTITLE0=01 - Riot On Sunset Strip - The Standells
TTITLE1=02 - You Movin' - The Byrds
TTITLE2=03 - You I'll Be Following - Love
TTITLE3=04 - Dr. Stone - The Leaves
TTITLE4=05 - Go And Say Goodbye - Buffalo Springfield
TTITLE5=06 - Zig Zag Wanderer - Captain Beefheart and His Magic Band
TTITLE6=07 - Gentle As It May Seem - Iron Butterfly
TTITLE7=08 - Candy Cane Madness - Lowell George and The Factory
TTITLE8=09 - If You Want This Love - The West Coast Pop Art Experiment
TTITLE8=al Band
TTITLE9=10 - Baby My Heart - The Bobby Fuller Four
TTITLE10=11 - All Night Long - The Palace Guard
TTITLE11=12 - It's Gonna Rain - Sonny and Cher
TTITLE12=13 - For My Own - The Guilloteens
TTITLE13=14 - Take A Giant Step - The Rising Sons
TTITLE14=15 - One Too Many Mornings - The Association
TTITLE15=16 - Time Waits For No One - The Knack
TTITLE16=17 - Take It As It Comes - The Doors
TTITLE17=18 - Pulsating Dream - Kaleidoscope
TTITLE18=19 - Tripmaker - The Seeds
TTITLE19=20 - The People In Me - The Music Machine
TTITLE20=21 - Saturday's Son -The Sons Of Adam
TTITLE21=22 - Eventually - The Peanut Butter Conspiracy
TTITLE22=23 - Swim - Penny Arkade
TTITLE23=24 - The Third Eye - The Joint Effort
TTITLE24=25 - Girl In Your Eye - Spirit
EXTD=
EXTT0=
EXTT1=
EXTT2=
EXTT3=
EXTT4=
EXTT5=
EXTT6=
EXTT7=
EXTT8=
EXTT9=
EXTT10=
EXTT11=
EXTT12=
EXTT13=
EXTT14=
EXTT15=
EXTT16=
EXTT17=
EXTT18=
EXTT19=
EXTT20=
EXTT21=
EXTT22=
EXTT23=
EXTT24=
PLAYORDER=
